HIERARCHY
ROOT Hips
{
	OFFSET -0.001795 -0.223333 0.028219
	CHANNELS 6 Xposition Yposition Zposition Zrotation Yrotation Xrotation 
	JOINT LeftUpLeg
	{
		OFFSET 0.069520 -0.091406 -0.006815
		CHANNELS 3 Zrotation Yrotation Xrotation
		JOINT LeftLeg
		{
			OFFSET 0.034277 -0.375199 -0.004496
			CHANNELS 3 Zrotation Yrotation Xrotation
			JOINT LeftFoot
			{
				OFFSET -0.013596 -0.397961 -0.043693
				CHANNELS 3 Zrotation Yrotation Xrotation
				JOINT LeftToe
				{
					OFFSET 0.026358 -0.055791 0.119288
					CHANNELS 3 Zrotation Yrotation Xrotation
					End Site
					{
						OFFSET 0.000000 0.000000 0.000000
					}
				}
			}
		}
	}
	JOINT RightUpLeg
	{
		OFFSET -0.067670 -0.090522 -0.004320
		CHANNELS 3 Zrotation Yrotation Xrotation
		JOINT RightLeg
		{
			OFFSET -0.038290 -0.382569 -0.008850
			CHANNELS 3 Zrotation Yrotation Xrotation
			JOINT RightFoot
			{
				OFFSET 0.015774 -0.398415 -0.042312
				CHANNELS 3 Zrotation Yrotation Xrotation
				JOINT RightToe
				{
					OFFSET -0.025372 -0.048144 0.123348
					CHANNELS 3 Zrotation Yrotation Xrotation
					End Site
					{
						OFFSET 0.000000 0.000000 0.000000
					}
				}
			}
		}
	}
	JOINT Spine
	{
		OFFSET -0.002533 0.108963 -0.026696
		CHANNELS 3 Zrotation Yrotation Xrotation
		JOINT Spine1
		{
			OFFSET 0.005487 0.135180 0.001092
			CHANNELS 3 Zrotation Yrotation Xrotation
			JOINT Spine2
			{
				OFFSET 0.001457 0.052922 0.025425
				CHANNELS 3 Zrotation Yrotation Xrotation
				JOINT Neck
				{
					OFFSET -0.002778 0.213870 -0.042857
					CHANNELS 3 Zrotation Yrotation Xrotation
					JOINT Head
					{
						OFFSET 0.005152 0.064970 0.051349
						CHANNELS 3 Zrotation Yrotation Xrotation
						End Site
						{
							OFFSET 0.000000 0.000000 0.000000
						}
					}
				}
				JOINT LeftShoulder
				{
					OFFSET 0.078845 0.121749 -0.034090
					CHANNELS 3 Zrotation Yrotation Xrotation
					JOINT LeftArm
					{
						OFFSET 0.090977 0.030469 -0.008868
						CHANNELS 3 Zrotation Yrotation Xrotation
						JOINT LeftForeArm
						{
							OFFSET 0.259612 -0.012772 -0.027456
							CHANNELS 3 Zrotation Yrotation Xrotation
							JOINT LeftHand
							{
								OFFSET 0.249234 0.008986 -0.001171
								CHANNELS 3 Zrotation Yrotation Xrotation
								End Site
								{
									OFFSET 0.000000 0.000000 0.000000
								}
							}
						}
					}
				}
				JOINT RightShoulder
				{
					OFFSET -0.081759 0.118833 -0.038615
					CHANNELS 3 Zrotation Yrotation Xrotation
					JOINT RightArm
					{
						OFFSET -0.096012 0.032551 -0.009143
						CHANNELS 3 Zrotation Yrotation Xrotation
						JOINT RightForeArm
						{
							OFFSET -0.253742 -0.013329 -0.021401
							CHANNELS 3 Zrotation Yrotation Xrotation
							JOINT RightHand
							{
								OFFSET -0.255298 0.007772 -0.005559
								CHANNELS 3 Zrotation Yrotation Xrotation
								End Site
								{
									OFFSET 0.000000 0.000000 0.000000
								}
							}
						}
					}
				}
			}
		}
	}
}
MOTION
Frames: 16
Frame Time: 0.050000
0.811852 0.954725 3.896711 -0.546030 23.884529 -9.306804 7.771993 -0.443051 -0.542021 -5.367248 -0.429788 18.557669 10.347019 20.399338 7.943673 0.000000 0.000000 0.000000 0.060082 0.481647 -5.459276 0.289975 -0.147495 10.924218 -10.735065 -22.822958 12.665151 0.000000 0.000000 0.000000 -1.242798 -0.603487 11.727907 4.701415 0.010325 -25.159312 -1.737937 3.383467 27.468540 3.252929 2.197010 -21.527783 0.000000 0.000000 0.000000 -27.814694 -0.631475 -8.720155 -47.801279 1.877924 -6.600486 -18.129679 -38.162825 6.335871 0.000000 0.000000 0.000000 2.464854 14.855675 6.322758 11.306216 37.003430 0.554455 -29.806118 27.079119 -4.753948 0.000000 0.000000 0.000000 
0.816399 0.956189 3.921786 -0.544818 23.931785 -8.441972 7.657352 -0.447588 -0.472521 -3.677122 -0.078314 9.345805 11.477448 22.757044 13.976262 0.000000 0.000000 0.000000 0.216752 0.332054 -3.580855 -0.773745 0.168515 8.837186 -9.414569 -20.511831 11.830388 0.000000 0.000000 0.000000 -1.069912 -0.637805 12.010308 4.095375 0.181309 -26.268513 -1.497502 3.940872 27.908871 4.384314 1.568179 -21.551401 0.000000 0.000000 0.000000 -28.071397 -1.899333 -8.254185 -47.182230 1.653187 -6.355596 -17.173522 -37.992040 5.964632 0.000000 0.000000 0.000000 1.563416 14.961985 6.111470 7.282148 37.443739 -0.196219 -30.009889 25.282859 -4.453400 0.000000 0.000000 0.000000 
0.821119 0.955966 3.943834 -0.922411 24.492382 -9.024666 7.289749 -0.424454 0.447798 -1.529247 -0.181493 6.456100 13.963852 25.811135 18.601202 0.000000 0.000000 0.000000 0.764097 0.100453 -1.025012 -1.596078 0.359129 7.266879 -9.078014 -19.840362 11.960272 0.000000 0.000000 0.000000 -1.480087 -0.706343 13.062413 4.259864 0.141868 -25.726538 -1.276715 2.946667 27.329665 5.196153 0.947639 -21.804111 0.000000 0.000000 0.000000 -28.255549 -2.154195 -7.875787 -47.522243 0.592999 -6.033646 -15.195702 -38.714036 5.466002 0.000000 0.000000 0.000000 1.281669 15.732398 6.283070 3.534099 38.837887 -0.951618 -30.927832 22.644987 -4.160104 0.000000 0.000000 0.000000 
0.825984 0.954867 3.962801 -1.062581 24.568911 -9.070620 6.883494 -0.392476 1.175309 0.060156 -0.361687 6.372512 17.630442 29.322503 22.592986 0.000000 0.000000 0.000000 1.043837 -0.116218 0.887692 -1.484550 0.335025 6.126052 -9.015854 -20.176107 10.642285 0.000000 0.000000 0.000000 -2.375776 -0.614480 12.819666 4.697519 0.026691 -25.266473 -1.163230 2.667448 27.334831 6.459978 0.063089 -21.870616 0.000000 0.000000 0.000000 -28.262891 -3.498931 -6.920801 -47.782802 -0.777206 -5.596675 -12.362622 -39.061456 4.583303 0.000000 0.000000 0.000000 2.368179 16.272982 6.828548 0.274683 39.181238 -1.776503 -30.980276 22.068182 -4.195457 0.000000 0.000000 0.000000 
0.830862 0.952784 3.977977 -1.801259 24.446158 -8.864301 7.293619 -0.438387 1.918763 1.167499 -0.459043 5.886896 22.391141 33.090998 26.423361 0.000000 0.000000 0.000000 1.439654 -0.148456 1.232857 -0.663664 0.162886 6.363883 -8.920599 -20.423761 9.278089 0.000000 0.000000 0.000000 -3.033828 -0.533155 12.376286 6.115329 -0.371340 -24.485244 -1.616427 2.069629 26.843520 6.631497 -0.414587 -20.498437 0.000000 0.000000 0.000000 -28.856499 -4.205749 -6.403119 -47.361633 -1.769379 -5.118301 -11.126745 -41.072956 4.437287 0.000000 0.000000 0.000000 2.878316 17.192941 7.331242 -0.559521 38.699165 -2.015399 -31.419260 22.556153 -4.470250 0.000000 0.000000 0.000000 
0.835207 0.951785 3.989341 -1.925451 23.565225 -7.883972 7.545876 -0.460536 2.598370 1.040743 -0.340029 4.511923 23.185539 33.723880 26.801957 0.000000 0.000000 0.000000 1.339538 -0.141583 1.174243 -0.179860 0.075079 5.760058 -8.486758 -19.833299 8.247206 0.000000 0.000000 0.000000 -3.955519 -0.400286 11.513482 7.079873 -0.698761 -23.692310 -1.548554 1.719573 26.180365 6.338668 -0.527501 -19.693548 0.000000 0.000000 0.000000 -29.713875 -4.407646 -6.112753 -46.506931 -2.372208 -4.766970 -10.879453 -44.678726 4.856217 0.000000 0.000000 0.000000 3.475395 18.918475 8.159413 -0.025447 37.115462 -1.932683 -31.378763 24.582062 -5.047183 0.000000 0.000000 0.000000 
0.838991 0.951329 3.996916 -2.278460 23.645888 -7.376026 8.152565 -0.546036 3.207808 0.566287 -0.202849 3.142375 23.295294 33.818214 26.491303 0.000000 0.000000 0.000000 1.358055 -0.119314 1.010808 0.362979 -0.039619 5.782367 -8.500536 -19.972856 7.862542 0.000000 0.000000 0.000000 -4.144176 -0.354084 10.917037 7.107272 -0.699451 -23.816334 -1.430355 1.174612 26.359342 5.839041 -0.341184 -19.206406 0.000000 0.000000 0.000000 -29.352682 -4.214192 -5.958042 -46.992670 -3.020064 -4.694042 -13.037151 -48.324761 6.260091 0.000000 0.000000 0.000000 4.636179 19.325526 8.682740 1.816828 35.289325 -1.619753 -31.212660 28.372100 -5.965777 0.000000 0.000000 0.000000 
0.842404 0.950953 4.001713 -2.284355 23.665221 -6.579757 8.340451 -0.578438 3.239470 0.103404 -0.111537 2.220596 23.455649 33.968834 26.319500 0.000000 0.000000 0.000000 1.201945 -0.076999 0.658003 0.515073 -0.068762 5.527616 -8.505951 -20.036964 7.640569 0.000000 0.000000 0.000000 -4.901787 -0.263650 9.970494 7.607600 -0.884991 -23.145486 -1.353872 0.808350 25.926868 5.526497 -0.356030 -18.274931 0.000000 0.000000 0.000000 -28.809264 -4.179856 -5.669354 -46.542405 -3.687042 -4.453919 -16.662782 -52.463494 8.632397 0.000000 0.000000 0.000000 5.745117 19.770937 9.215619 3.635482 33.713202 -1.345119 -30.713958 31.422341 -6.607499 0.000000 0.000000 0.000000 
0.845795 0.950750 4.003978 -2.278391 23.622244 -6.183800 8.264397 -0.568836 2.952229 -0.034875 -0.108464 2.394536 23.627304 34.139990 26.174607 0.000000 0.000000 0.000000 0.727341 -0.139049 1.070333 1.060173 -0.168538 4.418079 -8.403370 -19.832042 7.614194 0.000000 0.000000 0.000000 -5.534477 -0.217870 9.664691 8.043286 -1.014855 -23.103265 -0.813442 0.812236 26.207878 5.090854 -0.155884 -17.703879 0.000000 0.000000 0.000000 -28.632093 -4.281132 -5.523513 -46.423250 -4.787477 -4.090491 -20.878367 -55.287159 11.372685 0.000000 0.000000 0.000000 6.494296 19.568877 9.371878 5.359554 32.470594 -1.117988 -29.599995 34.161091 -6.953535 0.000000 0.000000 0.000000 
0.849342 0.949616 4.004382 -2.163981 23.793818 -5.817778 8.051741 -0.543102 2.380355 -0.212639 -0.120792 2.943154 23.732075 34.304127 25.654564 0.000000 0.000000 0.000000 0.185906 -0.151560 1.072021 1.447437 -0.243609 4.035069 -8.421079 -19.929348 7.399079 0.000000 0.000000 0.000000 -6.223408 -0.179328 9.361247 8.430318 -1.174837 -22.466231 -0.628101 0.585619 26.424113 4.734093 -0.056496 -17.006321 0.000000 0.000000 0.000000 -28.066699 -4.191390 -5.339065 -46.471845 -6.209302 -3.670590 -24.691410 -57.210796 13.946464 0.000000 0.000000 0.000000 6.773195 19.280101 9.328633 6.891745 31.577314 -0.928745 -30.064938 34.601265 -7.155833 0.000000 0.000000 0.000000 
0.852961 0.948902 4.003335 -2.211817 23.708487 -5.612909 7.914129 -0.523297 1.867657 -0.326270 -0.140542 3.524617 23.996201 34.584496 25.376030 0.000000 0.000000 0.000000 -0.190961 -0.162166 1.088145 1.751224 -0.298991 3.616190 -8.346571 -19.770763 7.381764 0.000000 0.000000 0.000000 -6.363795 -0.169634 9.337977 8.590735 -1.253988 -22.052040 -0.419727 0.879456 26.191574 4.881260 -0.149632 -16.861248 0.000000 0.000000 0.000000 -27.732808 -4.060042 -5.424200 -46.674294 -6.976853 -3.386359 -27.642884 -57.986581 15.747629 0.000000 0.000000 0.000000 7.343423 18.438242 9.182965 8.267317 31.262278 -0.770502 -31.088105 34.981438 -7.455485 0.000000 0.000000 0.000000 
0.856531 0.947485 4.001344 -2.159560 23.483171 -5.378974 7.712209 -0.494607 1.266614 -0.551507 -0.156871 4.245793 24.418513 35.026022 25.066681 0.000000 0.000000 0.000000 -0.723427 -0.157653 0.932231 2.111509 -0.364363 3.407045 -8.211816 -19.540232 7.122243 0.000000 0.000000 0.000000 -6.544182 -0.158102 9.365148 8.693089 -1.331739 -21.501292 -0.159015 0.924273 26.389088 4.355498 -0.028882 -15.507129 0.000000 0.000000 0.000000 -28.033718 -3.995426 -5.470726 -46.461860 -7.874359 -3.050999 -29.059514 -58.969314 16.940045 0.000000 0.000000 0.000000 7.800187 17.831869 9.049206 9.232479 31.241917 -0.679194 -33.435705 35.212478 -8.149731 0.000000 0.000000 0.000000 
0.859884 0.946785 3.998557 -2.315354 23.210846 -5.496418 7.784997 -0.493673 1.064975 -0.904447 -0.144031 4.688516 24.812810 35.418039 24.869374 0.000000 0.000000 0.000000 -1.041531 -0.127681 0.568259 2.446629 -0.437372 3.977747 -8.087655 -19.283423 7.024860 0.000000 0.000000 0.000000 -6.565003 -0.166215 9.792100 9.137563 -1.534176 -20.831342 -0.357679 1.593583 26.156251 4.381608 -0.126317 -14.665624 0.000000 0.000000 0.000000 -28.113474 -4.061541 -5.629124 -46.270759 -8.143584 -2.842964 -30.236725 -59.868120 17.821887 0.000000 0.000000 0.000000 8.817826 17.036813 9.071919 10.076979 31.051624 -0.624088 -36.733354 35.407513 -9.068213 0.000000 0.000000 0.000000 
0.862832 0.945833 3.995249 -2.360672 22.882328 -5.294541 7.758218 -0.486421 0.834807 -1.262277 -0.101934 4.600291 25.261167 35.857277 24.723972 0.000000 0.000000 0.000000 -1.513170 -0.094224 0.100649 2.881042 -0.524265 4.104446 -7.935694 -18.956858 6.926987 0.000000 0.000000 0.000000 -6.694163 -0.155915 9.889766 9.482121 -1.717241 -20.119425 -0.254585 1.696274 26.322340 3.928862 -0.003431 -13.552608 0.000000 0.000000 0.000000 -28.432951 -4.196032 -5.568358 -46.035763 -8.609289 -2.648900 -29.979965 -60.999357 18.120438 0.000000 0.000000 0.000000 8.899783 16.550596 8.864640 12.160971 30.695103 -0.384427 -40.210942 37.301033 -10.591381 0.000000 0.000000 0.000000 
0.865229 0.945461 3.991239 -2.467079 22.791110 -5.232202 7.908178 -0.498802 0.730146 -1.781586 -0.037286 4.303012 25.482112 36.097113 24.480568 0.000000 0.000000 0.000000 -1.783643 -0.064360 -0.312052 3.104952 -0.573675 4.290960 -7.905088 -18.823442 7.101467 0.000000 0.000000 0.000000 -6.694842 -0.163123 10.288192 9.476602 -1.771277 -19.565746 -0.338976 1.630087 26.596304 3.636638 0.103437 -13.004739 0.000000 0.000000 0.000000 -28.625959 -4.535438 -5.337053 -45.920515 -8.847029 -2.576496 -28.275532 -61.576330 17.345988 0.000000 0.000000 0.000000 9.763474 15.726232 8.745846 13.811281 30.285351 -0.280604 -43.144827 40.492599 -12.600170 0.000000 0.000000 0.000000 
0.867008 0.944835 3.986318 -2.573487 23.360842 -5.099650 8.324758 -0.546177 -0.293635 -2.734666 0.015489 5.094182 25.303988 36.074990 23.689929 0.000000 0.000000 0.000000 -2.041819 0.021442 -1.436224 3.332866 -0.672622 5.601367 -8.192941 -19.352820 7.266826 0.000000 0.000000 0.000000 -6.786656 -0.204400 11.774955 9.949516 -1.945927 -19.192037 -0.501496 1.592501 26.568161 3.149827 0.103998 -10.886377 0.000000 0.000000 0.000000 -28.928699 -5.102062 -5.131320 -45.605415 -9.025430 -2.433329 -26.479679 -61.444299 16.190077 0.000000 0.000000 0.000000 10.905715 15.049373 8.804437 15.317720 28.589783 -0.329802 -45.777154 45.813478 -15.617228 0.000000 0.000000 0.000000 
